# xmcd
# Copyright (C) 1995-1998 Ti Kan
#
# Track frame offsets:
#       150
#       18611
#       35847
#       49670
#       71079
#       84303
#       107936
#       138371
#       155068
#       170666
#       189670
#       204787
#       222242
#       239214
#       257601
#       273071
#       290950
#       308717
#
# Disc length: 4387 seconds
#
# Revision: 13
# Processed by: cddbd v1.5.1PL0 Copyright (c) Steve Scherf et al.
# Submitted via: CD-Transfer v1.0
#
DISCID=16112112
DTITLE=Brennan Moya - Dancing Bear 08-2004
DYEAR=04
DGENRE=
TTITLE0=Sex Bez Dodira
TTITLE1=Ljetni Hit
TTITLE2=Lane Moje
TTITLE3=Leaving New York
TTITLE4=American Idiot
TTITLE5=Can't Stop (Live)
TTITLE6=The Sides
TTITLE7=Still In Love Song
TTITLE8=Angel
TTITLE9=Summertime
TTITLE10=When You Got A Good Friend
TTITLE11=Summertime Blues
TTITLE12=Sunshine
TTITLE13=Rescue
TTITLE14=Pon De River, Pon De Bank
TTITLE15=Sweet (A La La La La Song)
TTITLE16=Louie, Louie
TTITLE17=Tell Me Now (What You See)
EXTD=
EXTT0=
EXTT1=
EXTT2=
EXTT3=
EXTT4=
EXTT5=
EXTT6=
EXTT7=
EXTT8=
EXTT9=
EXTT10=
EXTT11=
EXTT12=
EXTT13=
EXTT14=
EXTT15=
EXTT16=
EXTT17=
PLAYORDER=
